<svg width="299" height="138" viewBox="0 0 299 138" fill="none" xmlns="http://www.w3.org/2000/svg">
<path d="M0 69V138H149.5H299V69V-2.05636e-06H149.5H0V69ZM292 68.5V131H149H6V69.2C6 35.2 6.3 7 6.7 6.7C7 6.3 71.4 6 149.7 6H292V68.5Z" fill="#C72523"/>
<path d="M17 64C17 114.6 17.1 116.1 22.2 119.3C28.5 123.3 37.8 122 41 116.7C42.9 113.6 43 111.3 43 65.2V17H39.5H36V62.7C36 112.7 35.9 113.2 30.5 113.8C25 114.5 25 114.9 25 63.8V17H21H17V64Z" fill="#C72523"/>
<path d="M50.5 18.2C50.2 18.9 50.1 42.2 50.2 70L50.5 120.5L62.3 120.8L74.1 121.1L73.8 117.3L73.5 113.5L65.8 113.2L58 112.9V65V17H54.5C52.5 17 50.7 17.6 50.5 18.2Z" fill="#C72523"/>
<path d="M75 21V25H79.5H84V73V121H88H92V73V25H96.5H101V21V17H88H75V21Z" fill="#C72523"/>
<path d="M105.5 18.2C105.2 18.9 105.1 42.2 105.2 70L105.5 120.5L109.3 120.8L113 121.1V69.1V17H109.5C107.5 17 105.7 17.6 105.5 18.2Z" fill="#C72523"/>
<path d="M121 69V121H124.5H128L128.1 87.2L128.2 53.5L130.5 72C131.8 82.2 133.6 97.4 134.5 105.8L136.3 121H139.6C141.6 121 143 120.5 143.1 119.7C143.1 119.1 145.1 103.4 147.5 85L151.8 51.5L151.9 86.2L152 121H155.5H159V68.9V16.9L154.3 17.2L149.6 17.5L144.9 55.3C142.4 76.1 140.1 93.3 139.8 93.5C139.6 93.7 138.4 85.1 137.1 74.2C133.5 42.2 131 21.7 130.4 19.2C130 17.3 129.3 17 125.5 17H121V69Z" fill="#C72523"/>
<path d="M173.5 20.2C173.2 22 171.9 34.7 170.5 48.5C169.1 62.2 166.8 83.9 165.5 96.7C164.1 109.5 163 120.2 163 120.5C163 120.8 164.7 121 166.9 121H170.7L171.3 112.7C171.7 108.2 172 102.6 172 100.2V95.9L177.8 96.2L183.5 96.5L183.7 101.5C183.9 104.2 184.2 109.8 184.6 113.7L185.2 121H189H192.8L192.3 116.7C191.7 109.5 186.1 41 185.5 31.5C184.5 16.7 184.6 17 179 17C174.2 17 174.1 17.1 173.5 20.2ZM180.5 61.5C181.4 71.4 182.3 81.4 182.6 83.7L183.2 88H178.2H173.1L173.6 84.7C174.5 78.2 178 41.4 178.2 36.1L178.4 30.5L178.7 37C178.8 40.6 179.7 51.6 180.5 61.5Z" fill="#C72523"/>
<path d="M193 21V25H197.5H202L202.2 72.7L202.5 120.5L206.3 120.8L210 121.1V73.1V25H215H220V21V17H206.5H193V21Z" fill="#C72523"/>
<path d="M230 18.3C228.6 19 226.6 21.3 225.5 23.5C223.6 27.3 223.5 29.9 223.2 66.5C222.8 108.8 223.3 114 227.6 118.4C233.6 124.3 244.6 122.2 248.5 114.5C250.4 110.7 250.5 108.5 250.5 69C250.5 30.4 250.4 27.2 248.6 23.7C247.6 21.6 245.5 19.3 243.9 18.5C240.5 16.7 233.4 16.6 230 18.3ZM241.1 26.7C242.2 28 242.6 35.6 242.8 64.4C243.2 102.8 242.8 110.1 240.3 112.6C238.1 114.8 233.8 114 232.3 111C230.4 107.3 230.9 29 232.9 26.7C234.6 24.5 239.4 24.5 241.1 26.7Z" fill="#C72523"/>
<path d="M257 68.9V121H260.5H264L264.1 88.2C264.2 70.2 264.5 56.9 264.9 58.6C265.3 60.3 267.7 75 270.1 91.3L274.5 121H278.7H283V69V17H279.5H276L275.9 52.7L275.8 88.5L270.6 53L265.5 17.5L261.3 17.2L257 16.9V68.9Z" fill="#C72523"/>
</svg>
